<svg width="32" height="32" viewBox="0 0 32 32" fill="none" xmlns="http://www.w3.org/2000/svg">
<g clip-path="url(#clip0_1310_2)">
<path d="M2.21137 29.7901C4.35359 31.9324 6.74737 33.0141 9.04515 30.7164C10.6763 29.0853 10.2611 26.0257 8.11804 23.8817C5.97493 21.7395 2.91626 21.3244 1.28426 22.9555C-1.01352 25.2533 0.0682593 27.6461 2.21137 29.7901V29.7901ZM8.03626 23.9644C9.64337 25.5715 9.95448 27.8666 8.73137 29.0906C7.0087 30.8133 5.21315 30.0017 3.60515 28.3946C1.99715 26.7884 1.18648 24.9937 2.91004 23.2693C4.13315 22.0461 6.42826 22.3573 8.03626 23.9644V23.9644ZM29.7891 2.21059C27.6469 0.0674746 25.254 -1.01341 22.9554 1.28436C21.3243 2.91547 21.7394 5.97503 23.8825 8.11814C26.0256 10.2613 29.0834 10.6764 30.7163 9.04436C33.014 6.74659 31.9323 4.35281 29.7891 2.21059V2.21059ZM23.9643 8.03547C22.3571 6.42836 22.046 4.13414 23.2691 2.91014C24.9918 1.18747 26.7874 1.99814 28.3954 3.60525C30.0034 5.21236 30.814 7.00703 29.0905 8.73059C27.8674 9.9537 25.5723 9.64259 23.9643 8.03547V8.03547Z" fill="#292F33"/>
<path d="M16 31.1111C24.3456 31.1111 31.1111 24.3456 31.1111 16C31.1111 7.65436 24.3456 0.888889 16 0.888889C7.65436 0.888889 0.888885 7.65436 0.888885 16C0.888885 24.3456 7.65436 31.1111 16 31.1111Z" fill="#292F33"/>
<path d="M28.0889 16C28.0889 22.6764 22.6764 28.0889 16 28.0889C9.32355 28.0889 3.91111 22.6764 3.91111 16C3.91111 9.32356 9.32355 3.91111 16 3.91111C22.6764 3.91111 28.0889 9.32356 28.0889 16Z" fill="#FFAC33"/>
<path d="M17.2844 9.48L15.0276 7.22311C15.1965 7.02663 15.2823 6.77203 15.2667 6.51335C15.2511 6.25466 15.1353 6.01223 14.9439 5.83749C14.7525 5.66276 14.5006 5.56946 14.2416 5.5774C13.9825 5.58533 13.7368 5.69388 13.5564 5.88C13.3164 6.12 13.2258 6.45156 13.28 6.76089C13.0706 6.72366 12.8548 6.75421 12.664 6.84809C12.4732 6.94198 12.3173 7.09431 12.219 7.28291C12.1208 7.47151 12.0852 7.68655 12.1176 7.89673C12.15 8.10692 12.2486 8.30129 12.3991 8.45156C12.768 8.82045 13.3502 8.83644 13.7422 8.50844L15.9991 10.7644L17.2844 9.48Z" fill="#FFE8B6"/>
<path d="M24.5947 18.0764C25.2373 17.4338 26.8622 14.6756 24.6133 12.4267C23.0462 10.8596 21.7831 10.9493 19.4338 10.3671C18.4702 10.0453 17.2133 8.88711 16.8924 8.56622C16.5707 8.88711 16.6836 10.0622 16.6836 10.0622C16.6836 10.0622 15.2836 10.176 14.9618 10.4969C15.2827 10.8178 16.776 12.2302 17.0373 12.8924C17.7396 15.1218 17.6596 16.256 19.2276 17.8222C21.7973 20.392 23.9529 18.7191 24.5947 18.0764Z" fill="#C1694F"/>
<path d="M8.296 14.6667C8.296 16.3849 11.0507 17.7778 9.33333 17.7778C8.92477 17.7778 8.52022 17.6973 8.14276 17.541C7.7653 17.3846 7.42234 17.1554 7.13344 16.8666C6.84455 16.5777 6.61539 16.2347 6.45904 15.8572C6.30269 15.4798 6.22222 15.0752 6.22222 14.6667C6.22222 14.2581 6.30269 13.8536 6.45904 13.4761C6.61539 13.0986 6.84455 12.7557 7.13344 12.4668C7.42234 12.1779 7.7653 11.9487 8.14276 11.7924C8.52022 11.636 8.92477 11.5556 9.33333 11.5556C11.0516 11.5556 8.296 12.9484 8.296 14.6667ZM16.016 23.1022C17.4373 23.7876 19.6924 22.0649 19.0062 23.4871C18.6764 24.1701 18.0888 24.694 17.3727 24.9438C16.6565 25.1935 15.8705 25.1485 15.1876 24.8187C14.5046 24.4889 13.9806 23.9012 13.7309 23.1851C13.4812 22.469 13.5262 21.683 13.856 21C14.5422 19.5778 14.5947 22.416 16.016 23.1022Z" fill="#77B255"/>
<path d="M13.3333 16.8889C14.3152 16.8889 15.1111 16.093 15.1111 15.1111C15.1111 14.1293 14.3152 13.3333 13.3333 13.3333C12.3515 13.3333 11.5556 14.1293 11.5556 15.1111C11.5556 16.093 12.3515 16.8889 13.3333 16.8889Z" fill="#F4900C"/>
<path d="M21.3333 22.2222C21.8242 22.2222 22.2222 21.8243 22.2222 21.3333C22.2222 20.8424 21.8242 20.4444 21.3333 20.4444C20.8424 20.4444 20.4444 20.8424 20.4444 21.3333C20.4444 21.8243 20.8424 22.2222 21.3333 22.2222Z" fill="#F4900C"/>
<path d="M9.77778 21.3333C10.2687 21.3333 10.6667 20.9354 10.6667 20.4444C10.6667 19.9535 10.2687 19.5556 9.77778 19.5556C9.28686 19.5556 8.88889 19.9535 8.88889 20.4444C8.88889 20.9354 9.28686 21.3333 9.77778 21.3333Z" fill="#F4900C"/>
</g>
<defs>
<clipPath id="clip0_1310_2">
<rect width="32" height="32" fill="white"/>
</clipPath>
</defs>
</svg>
